<svg width="92" height="80" viewBox="0 0 92 80" fill="none" xmlns="http://www.w3.org/2000/svg">
<path d="M2.2458 79.8961H0V71.0734H2.2458V79.8961Z" fill="#191919"/>
<path d="M15.048 79.8961H13.0665L9.00892 74.4704V79.8961H6.90466V71.0734H8.88625L12.9532 76.518V71.0734H15.048V79.8961Z" fill="#191919"/>
<path d="M35.2173 79.8962H33.2357L33.2262 74.1685L31.1126 79.0186H29.65L27.5363 74.1685V79.8962H25.5264V71.064H27.9892L30.3765 76.3199L32.7733 71.064H35.2173V79.8962Z" fill="#191919"/>
<path d="M44.0782 70.9979C45.4417 70.9979 46.5787 71.4273 47.4846 72.2812C48.3952 73.1305 48.8529 74.1944 48.8529 75.4706C48.8529 76.761 48.3952 77.8391 47.4846 78.7072C46.5717 79.5706 45.4323 80 44.0687 80C42.7099 80 41.5776 79.5706 40.6717 78.7072C39.7659 77.8462 39.3129 76.7681 39.3129 75.4706C39.3129 74.1873 39.7659 73.1211 40.6717 72.2718C41.5776 71.4226 42.7123 70.9979 44.0782 70.9979ZM44.097 72.8757C43.4106 72.8757 42.8232 73.1281 42.3325 73.6306C41.8465 74.1284 41.6059 74.7488 41.6059 75.4895C41.6059 76.2255 41.8512 76.8483 42.3419 77.3579C42.8326 77.8674 43.4176 78.1222 44.097 78.1222C44.7764 78.1222 45.352 77.8674 45.8239 77.3579C46.3004 76.8483 46.541 76.2255 46.541 75.4895C46.541 74.7488 46.3004 74.1284 45.8239 73.6306C45.352 73.1281 44.7764 72.8757 44.097 72.8757Z" fill="#191919"/>
<path d="M59.6747 72.8757H57.0137V79.8962H54.7679V72.8757H52.1352V71.064H59.6747V72.8757Z" fill="#191919"/>
<path d="M65.7695 79.8961H63.5237V71.0734H65.7695V79.8961Z" fill="#191919"/>
<path d="M74.6178 70.9979C75.9814 70.9979 77.1184 71.4273 78.0243 72.2812C78.9349 73.1305 79.3925 74.1944 79.3925 75.4706C79.3925 76.761 78.9349 77.8391 78.0243 78.7072C77.1113 79.5706 75.9719 80 74.6084 80C73.2496 80 72.1173 79.5706 71.2114 78.7072C70.3055 77.8462 69.8526 76.7681 69.8526 75.4706C69.8526 74.1873 70.3055 73.1211 71.2114 72.2718C72.1173 71.4226 73.252 70.9979 74.6178 70.9979ZM74.6367 72.8757C73.9502 72.8757 73.3628 73.1281 72.8722 73.6306C72.3862 74.1284 72.1456 74.7488 72.1456 75.4895C72.1456 76.2255 72.3909 76.8483 72.8816 77.3579C73.3723 77.8674 73.9573 78.1222 74.6367 78.1222C75.3161 78.1222 75.8917 77.8674 76.3635 77.3579C76.8401 76.8483 77.0807 76.2255 77.0807 75.4895C77.0807 74.7488 76.8401 74.1284 76.3635 73.6306C75.8917 73.1281 75.3161 72.8757 74.6367 72.8757Z" fill="#191919"/>
<path d="M91.6115 79.8961H89.6299L85.5723 74.4704V79.8961H83.4681V71.0734H85.4497L89.5166 76.518V71.0734H91.6115V79.8961Z" fill="#191919"/>
<path d="M64.7653 56.1119H17.7969V9.10352H64.7653V56.1119ZM18.5471 55.3618H64.0151V9.85369H18.5471V55.3618Z" fill="#191919"/>
<path d="M69.0113 51.3608H22.0453V4.35242H69.0113V51.3608ZM22.7931 50.6107H68.2611V5.10259H22.7931V50.6107Z" fill="#191919"/>
<path d="M73.5074 47.0108H26.5414V0H73.5074V47.0108ZM27.2916 46.2606H72.7596V0.750172H27.2916V46.2606Z" fill="#191919"/>
<path d="M32.8613 30.6132H43.2481V41.0023H32.8613V30.6132Z" fill="#191919"/>
</svg>
