<svg width="148" height="42" viewBox="0 0 148 42" fill="none" xmlns="http://www.w3.org/2000/svg">
<path fill-rule="evenodd" clip-rule="evenodd" d="M0 0H147.417V42H0V0ZM2 2V40H145.417V2H2Z" fill="#191919"/>
<path d="M4.93005 4.76306H73.6779V37.2631H4.93005V4.76306Z" fill="#191919"/>
<path d="M13.6352 26.5019H14.9155L19.2537 15.5796H17.8018L15.9767 20.1825L14.2754 24.5206L12.5588 20.1825L10.7489 15.5796H9.28186L13.6352 26.5019Z" fill="#FDFBF5"/>
<path d="M22.292 26.5019H23.6657V15.5796H22.292V26.5019Z" fill="#FDFBF5"/>
<path d="M31.6701 26.7037C34.0573 26.7037 35.6024 25.534 35.6024 23.6308C35.6024 22.0227 34.526 21.057 31.733 20.3691C29.6106 19.8548 28.9075 19.2927 28.9075 18.3878C28.9075 17.3418 29.845 16.6864 31.4053 16.6864C33.0112 16.6864 34.0095 17.498 34.0421 18.8088H35.3984C35.3832 16.6864 33.8533 15.3756 31.4053 15.3756C29.016 15.3756 27.5034 16.5475 27.5034 18.3878C27.5034 20.074 28.7057 21.0093 31.388 21.6495C33.3541 22.1161 34.181 22.6629 34.181 23.6786C34.181 24.755 33.2152 25.393 31.6701 25.393C29.9687 25.393 28.7838 24.551 28.7513 23.1469H27.3776C27.3949 25.2845 29.0638 26.7037 31.6701 26.7037Z" fill="#FDFBF5"/>
<path d="M39.3115 26.5019H40.6852V15.5796H39.3115V26.5019Z" fill="#FDFBF5"/>
<path d="M50.0155 26.7037C53.3401 26.7037 55.6795 24.3643 55.6795 21.0397C55.6795 17.7172 53.3401 15.3756 50.0155 15.3756C46.6908 15.3756 44.3666 17.7172 44.3666 21.0397C44.3666 24.3643 46.6908 26.7037 50.0155 26.7037ZM45.7707 21.0397C45.7707 18.4963 47.5024 16.7493 50.0155 16.7493C52.5285 16.7493 54.2602 18.4963 54.2602 21.0397C54.2602 23.5831 52.5285 25.3322 50.0155 25.3322C47.5024 25.3322 45.7707 23.5831 45.7707 21.0397Z" fill="#FDFBF5"/>
<path d="M59.3414 26.5019H60.6999V17.9516L66.7394 26.5019H68.0176V15.5796H66.6765V24.1299L60.637 15.5796H59.3414V26.5019Z" fill="#FDFBF5"/>
<path d="M83.7302 26.4036C86.445 26.4036 88.0509 25.1233 88.0509 22.9705C88.0509 21.1606 86.8812 20.0994 84.2293 19.5069C82.8252 19.1944 82.3109 18.8516 82.3109 18.2895C82.3109 17.7578 82.7775 17.4301 83.511 17.4301C84.3856 17.4301 84.8847 17.8837 84.8847 18.7105H87.8491C87.8491 16.4644 86.1325 15.0126 83.4481 15.0126C80.8743 15.0126 79.2836 16.293 79.2836 18.3524C79.2836 20.1927 80.4837 21.332 82.9489 21.8008C84.2749 22.0655 84.9151 22.4713 84.9151 23.0963C84.9151 23.641 84.4485 23.9535 83.6824 23.9535C82.7775 23.9535 82.248 23.4696 82.248 22.6276H79.2054C79.2054 24.9844 80.8895 26.4036 83.7302 26.4036Z" fill="#191919"/>
<path d="M92.3895 26.1693H95.5253V18.1636H98.85V15.2469H89.0648V18.1636H92.3895V26.1693Z" fill="#191919"/>
<path d="M105.136 26.4036C108.085 26.4036 109.912 24.6089 109.912 21.6749V15.2469H106.774V21.4731C106.774 22.7687 106.23 23.4544 105.136 23.4544C104.044 23.4544 103.497 22.7687 103.497 21.4731V15.2469H100.346V21.6749C100.346 24.6089 102.187 26.4036 105.136 26.4036Z" fill="#191919"/>
<path d="M112.142 26.1693H116.777C120.304 26.1693 122.643 24.0013 122.643 20.707C122.643 17.4301 120.304 15.2469 116.777 15.2469H112.142V26.1693ZM115.293 23.3459V18.0703H116.682C118.353 18.0703 119.429 19.1011 119.429 20.707C119.429 22.3151 118.353 23.3459 116.682 23.3459H115.293Z" fill="#191919"/>
<path d="M124.328 26.1693H127.479V15.2469H124.328V26.1693Z" fill="#191919"/>
<path d="M135.11 26.4036C138.589 26.4036 141.054 24.0469 141.054 20.707C141.054 17.3693 138.589 15.0126 135.11 15.0126C131.631 15.0126 129.164 17.3693 129.164 20.707C129.164 24.0469 131.631 26.4036 135.11 26.4036ZM132.362 20.707C132.362 19.0686 133.502 17.9314 135.11 17.9314C136.733 17.9314 137.855 19.0686 137.855 20.707C137.855 22.3455 136.733 23.4848 135.11 23.4848C133.502 23.4848 132.362 22.3455 132.362 20.707Z" fill="#191919"/>
</svg>
