<svg width="98" height="80" viewBox="0 0 98 80" fill="none" xmlns="http://www.w3.org/2000/svg">
<path d="M4.42807 64.2701L0 79.7824H1.53333L2.63509 75.8456H8.24562L9.34738 79.7824H10.8842L6.45615 64.2701H4.42807ZM5.43158 65.828L7.87369 74.5649H2.98948L5.43158 65.828Z" fill="#191919"/>
<path d="M17.4772 64.0349H16.0982V76.8314L15.9824 79.7823H17.1228L17.3193 78.3648C17.8701 79.27 18.8351 79.9998 20.428 79.9998C23.2842 79.9998 24.4245 77.6946 24.4245 74.8033V74.3297C24.4245 71.4349 23.2842 69.1332 20.428 69.1332C18.9719 69.1332 18.028 69.7647 17.4772 70.5507V64.0349ZM17.4772 71.9858C17.8912 71.2981 18.6982 70.3718 20.1158 70.3718C22.0842 70.3718 23.007 71.9086 23.007 74.3297V74.8033C23.007 77.2244 22.0842 78.7577 20.1158 78.7577C18.6982 78.7577 17.8912 77.8349 17.4772 77.1437V71.9858Z" fill="#191919"/>
<path d="M33.8528 78.8386C31.7861 78.8386 31.2142 77.7368 31.2142 76.593H29.8387V76.6737C29.8387 78.2666 30.9019 80 33.8528 80C36.4317 80 37.8703 78.7403 37.8703 76.9298V76.8316C37.8703 74.9193 36.7475 74.1719 34.13 73.9544C31.8668 73.7789 31.3545 73.1894 31.3545 72.1052C31.3545 70.9438 32.2773 70.2947 33.8528 70.2947C35.8037 70.2947 36.3931 71.221 36.3931 72.7158H37.751V72.6386C37.751 70.5894 36.7089 69.1333 33.8528 69.1333C31.4142 69.1333 29.9756 70.2947 29.9756 72.1052V72.2245C29.9756 73.7789 30.7826 74.7614 33.5966 75C35.6247 75.1754 36.4528 75.5123 36.4528 76.9298C36.4528 78.0912 35.5475 78.8386 33.8528 78.8386Z" fill="#191919"/>
<path d="M45.9777 69.3509V66.3965H44.5988V69.3509H42.9462V70.5895H44.5988V76.8877C44.5988 79.1509 45.8795 80 47.6514 80C48.476 80 48.9497 79.8421 49.1076 79.7825V78.5825C48.9497 78.6597 48.4163 78.7579 47.9848 78.7579C46.6655 78.7579 45.9777 78.3649 45.9777 76.7123V70.5895H49.3041V69.3509H45.9777Z" fill="#191919"/>
<path d="M58.9872 69.1333C57.5907 69.1333 56.6258 69.8631 56.0749 70.7263L55.8784 69.3508H54.738L54.8538 72.3017V79.7824H56.2328V72.0456C56.6644 71.3579 57.4328 70.4701 59.0082 70.4701H59.2819V69.1544C59.2644 69.1544 59.1275 69.1333 58.9872 69.1333Z" fill="#191919"/>
<path d="M71.253 79.7824H72.3933L72.274 76.8316V73.0105C72.274 70.7087 71.3898 69.1333 68.4951 69.1333C65.4249 69.1333 64.7372 71.0421 64.7372 72.6175V72.793H66.0565C66.0565 71.4351 66.5091 70.2947 68.4775 70.2947C70.3267 70.2947 70.8986 71.221 70.8986 73.0105V73.2877L67.7477 73.7789C66.0565 74.0351 64.3407 74.6842 64.3407 76.9473V77.1438C64.3407 78.8175 65.446 80 67.3547 80C69.1653 80 70.3442 79.2316 71.0354 78.3263L71.253 79.7824ZM67.7091 78.8C66.3091 78.8 65.7196 77.9509 65.7196 77.028V76.8491C65.7196 75.6701 66.5267 75.0175 67.867 74.7824L70.8986 74.2912V77.1438C70.5232 77.7544 69.6389 78.8 67.7091 78.8Z" fill="#191919"/>
<path d="M79.2413 74.8035V74.3298C79.2413 71.9473 80.1466 70.3719 82.2133 70.3719C84.1045 70.3719 84.8729 71.5754 84.8729 73.1684H86.1922V72.7754C86.1922 71.0807 85.0694 69.1333 82.1957 69.1333C79.1431 69.1333 77.8448 71.4351 77.8448 74.3298V74.8035C77.8448 77.6947 79.1431 80 82.1957 80C85.0694 80 86.1922 78.1298 86.1922 76.4772V76.1614H84.8729C84.8729 77.5193 84.1642 78.7579 82.2133 78.7579C80.1466 78.7579 79.2413 77.1824 79.2413 74.8035Z" fill="#191919"/>
<path d="M94.1427 69.3509V66.3965H92.7637V69.3509H91.1111V70.5895H92.7637V76.8877C92.7637 79.1509 94.0444 80 95.8164 80C96.6409 80 97.1146 79.8421 97.2725 79.7825V78.5825C97.1146 78.6597 96.5813 78.7579 96.1497 78.7579C94.8304 78.7579 94.1427 78.3649 94.1427 76.7123V70.5895H97.469V69.3509H94.1427Z" fill="#191919"/>
<path d="M70.2721 43.7825H71.6124V45.1193H70.2721V43.7825Z" fill="#191919"/>
<path d="M26.493 1.35437H27.8474V43.7825H26.493V1.35437Z" fill="#191919"/>
<path d="M26.493 43.7825H27.8474V45.1193H26.493V43.7825Z" fill="#191919"/>
<path d="M70.2721 1.35437H71.6124V43.7825H70.2721V1.35437Z" fill="#191919"/>
<path d="M27.8474 43.7825H70.272V45.1193H27.8474V43.7825Z" fill="#191919"/>
<path d="M70.2721 0H71.6124V1.35439H70.2721V0Z" fill="#191919"/>
<path d="M26.493 0H27.8474V1.35439H26.493V0Z" fill="#191919"/>
<path d="M27.8474 0H70.272V1.35439H27.8474V0Z" fill="#191919"/>
<path d="M32.493 6.00366H65.3001V38.8072H32.493V6.00366Z" fill="#191919"/>
<path d="M42.1035 20.8596H55.8684V23.9193H42.1035V20.8596Z" fill="#FDFBF5"/>
</svg>
