<svg width="86" height="80" viewBox="0 0 86 80" fill="none" xmlns="http://www.w3.org/2000/svg">
<path d="M0 67.8348H1.33723V57.1908H0V67.8348Z" fill="#191919"/>
<path d="M14.4605 57.1908V65.4019L8.49911 57.1908H7.28345V67.8348H8.59144V59.5329L14.6421 67.8348H15.7669V57.1908H14.4605Z" fill="#191919"/>
<path d="M28.844 57.1908L25.454 65.8436L22.0163 57.1908H20.5421L24.8446 67.8348H26.0772L30.3044 57.1908H28.844Z" fill="#191919"/>
<path d="M35.125 67.8348H36.4622V57.1908H35.125V67.8348Z" fill="#191919"/>
<path d="M45.5863 67.9717C47.6991 67.9717 49.3425 66.8315 49.3425 64.8233C49.3425 62.6043 47.4559 62.1627 45.7832 61.7518C44.4152 61.4333 43.1842 61.1286 43.1842 59.973C43.1842 58.9543 44.1567 58.3464 45.4493 58.3464C46.7419 58.3464 47.7145 59.0312 47.7145 60.2161H49.0378C49.0378 58.2864 47.6852 57.0692 45.4801 57.0692C43.275 57.0692 41.8608 58.1787 41.8608 60.0191C41.8608 62.1473 43.6704 62.5889 45.3124 62.969C46.6958 63.303 47.9576 63.5923 47.9576 64.8387C47.9576 65.9651 46.9096 66.6637 45.5709 66.6637C44.0967 66.6637 43.0164 65.8882 43.0164 64.5663H41.6484C41.6484 66.6637 43.2442 67.9717 45.5863 67.9717Z" fill="#191919"/>
<path d="M54.5273 67.8348H55.8646V57.1908H54.5273V67.8348Z" fill="#191919"/>
<path d="M66.6608 68.0179C69.8846 68.0179 72.2251 65.6604 72.2251 62.5274C72.2251 59.3805 69.8846 57.0231 66.6608 57.0231C63.4369 57.0231 61.0795 59.3805 61.0795 62.5274C61.0795 65.6604 63.4369 68.0179 66.6608 68.0179ZM66.6608 66.7099C64.2433 66.7099 62.449 64.9003 62.449 62.5274C62.449 60.1407 64.2433 58.3311 66.6608 58.3311C69.0782 58.3311 70.8725 60.1253 70.8725 62.5274C70.8725 64.9157 69.0782 66.7099 66.6608 66.7099Z" fill="#191919"/>
<path d="M84.6341 57.1908V65.4019L78.6727 57.1908H77.457V67.8348H78.765V59.5329L84.8156 67.8348H85.9405V57.1908H84.6341Z" fill="#191919"/>
<path d="M20.6558 79.5492C21.4898 79.5492 22.1392 79.0999 22.1392 78.3074C22.1392 77.4302 21.3944 77.2563 20.7342 77.0932C20.1941 76.9671 19.7079 76.847 19.7079 76.3915C19.7079 75.9899 20.091 75.7483 20.6019 75.7483C21.1128 75.7483 21.496 76.0191 21.496 76.4869H22.0192C22.0192 75.7252 21.4836 75.2451 20.6142 75.2451C19.7432 75.2451 19.1847 75.6837 19.1847 76.41C19.1847 77.2502 19.8987 77.4241 20.548 77.5749C21.0943 77.7057 21.5929 77.8196 21.5929 78.312C21.5929 78.7567 21.1774 79.0337 20.6496 79.0337C20.0679 79.0337 19.6417 78.7275 19.6417 78.2043H19.1016C19.1016 79.0337 19.7309 79.5492 20.6558 79.5492Z" fill="#191919"/>
<path d="M31.9786 80L31.1615 79.0567C31.6247 78.6612 31.9002 78.078 31.9002 77.3994C31.9002 76.1575 30.9753 75.2266 29.7027 75.2266C28.4301 75.2266 27.4991 76.1575 27.4991 77.3994C27.4991 78.6366 28.4301 79.5676 29.7027 79.5676C30.0874 79.5676 30.4475 79.4829 30.7537 79.3275L31.3308 80H31.9786ZM29.7027 79.0505C28.7487 79.0505 28.0408 78.3365 28.0408 77.3994C28.0408 76.4576 28.7487 75.7436 29.7027 75.7436C30.6583 75.7436 31.3662 76.4515 31.3662 77.3994C31.3662 77.9103 31.1554 78.355 30.8138 78.6489L30.0567 77.7718H29.415L30.3998 78.9136C30.189 79.0028 29.9551 79.0505 29.7027 79.0505Z" fill="#191919"/>
<path d="M39.1707 79.5676C40.114 79.5676 40.8157 78.8889 40.8157 77.9349V75.2927H40.2879V77.8918C40.2879 78.5889 39.8201 79.0505 39.1707 79.0505C38.5167 79.0505 38.055 78.5889 38.055 77.8918V75.2927H37.5195V77.9349C37.5195 78.8889 38.2228 79.5676 39.1707 79.5676Z" fill="#191919"/>
<path d="M49.6525 79.4952H50.2234L48.4584 75.2927H47.966L46.2487 79.4952H46.8072L47.215 78.4919H49.2386L49.6525 79.4952ZM48.2183 76.019L49.0416 78.0057H47.4135L48.2183 76.019Z" fill="#191919"/>
<path d="M58.1539 79.4952H58.7495L57.74 77.7902C58.2924 77.6348 58.671 77.1716 58.671 76.5776C58.671 75.8328 58.0893 75.2927 57.3014 75.2927H55.7057V79.4952H56.2335V77.8564H57.1876L58.1539 79.4952ZM56.2335 75.7975H57.2722C57.7877 75.7975 58.1309 76.1268 58.1309 76.5776C58.1309 77.027 57.7877 77.3517 57.2722 77.3517H56.2335V75.7975Z" fill="#191919"/>
<path d="M64.9028 78.9905V77.5794H66.5955V77.0931H64.9028V75.7975H66.7525V75.2927H64.375V79.4952H66.8186V78.9905H64.9028Z" fill="#191919"/>
<path d="M23.8793 3.44238H33.8985L32.5813 4.72268H24.5194V12.7753L23.2391 14.1018V3.44238H23.8793ZM37.544 3.44238H48.3988L49.6791 4.72268H36.2637L37.544 3.44238ZM52.0812 3.44238H62.7405V14.1018L61.4233 12.7845V4.72268H53.3707L52.0812 3.44238ZM62.7405 17.7488V28.602L61.4233 29.8823V16.4685L62.7405 17.7488ZM62.7405 32.2859V42.9453H52.0812L53.3615 41.6281H61.4141V33.5755L62.7405 32.2859ZM48.3988 42.9453H37.544L36.2637 41.6281H49.6791L48.3988 42.9453ZM33.8985 42.9453H23.2391V32.2859L24.5194 33.5662V41.6189H32.5721L33.8985 42.9453ZM23.2391 28.602V17.7488L24.5194 16.4685V29.8823L23.2391 28.602Z" fill="#191919"/>
<path d="M47.9148 0.204663L66.1821 18.4719V27.9249L47.7117 46.3861H38.2664L19.796 27.9157C19.796 24.7519 19.796 21.5896 19.796 18.4627C25.9282 12.3028 32.0973 6.13372 38.2664 0H47.7209L47.9148 0.204663ZM64.8649 18.9905L47.1546 1.28029H38.7865L21.0763 18.9905V27.3586L38.7773 45.0596H47.1454L64.8464 27.3586V18.9905H64.8649Z" fill="#191919"/>
<path d="M43.4253 3.88864L48.111 8.57279H46.2644L42.9898 5.25203L39.6691 8.57279H37.8687L42.9898 3.44238L43.4253 3.88864ZM50.7178 11.1795L55.0034 15.4667V17.2656L48.8712 11.1795H50.7178ZM57.6101 18.0642L62.7405 23.1931L57.6101 28.3235V26.4785L60.8955 23.1931L57.6101 19.8723V18.0642ZM55.0034 30.921L50.7178 35.2082H48.8712L55.0034 29.076V30.921ZM48.1203 37.8149L42.9898 42.9453L37.8594 37.8149H39.6598L42.9898 41.0987L46.2737 37.8149H48.1203ZM35.2619 35.2082L30.9763 30.921V29.076L37.0623 35.2082H35.2619ZM28.3695 28.3235L23.2391 23.1931L28.3695 18.0642V19.8631L25.0472 23.1931L28.3695 26.4785V28.3235ZM30.9763 15.4667L35.2619 11.1795H37.0623L30.9763 17.2656V15.4667Z" fill="#191919"/>
<path d="M56.9325 14.2602V32.369L52.3591 36.9701L51.8775 37.1286H34.0549L33.6194 36.9701L29.0092 32.3598V13.9817L33.7764 9.21289H52.1637L56.9325 13.9817V14.2602ZM55.643 31.8489V14.5387L51.6359 10.4932H34.3335L30.2895 14.5387V31.8396L34.3335 35.8483H51.6359L55.643 31.8489Z" fill="#191919"/>
<path d="M43.4247 9.93617L48.352 14.8635L42.9893 20.2709L37.5803 14.8635L42.9893 9.49146L43.4247 9.93617ZM46.5516 14.8635L42.9893 11.2534L39.3807 14.8635L42.9893 18.472L46.5516 14.8635Z" fill="#191919"/>
<path d="M56.2462 23.6301L51.2835 28.5558L45.9115 23.193L51.2835 17.7856L56.6909 23.193L56.2462 23.6301ZM51.2835 26.8031L54.892 23.193L51.2835 19.5845L47.7119 23.193L51.2835 26.8031Z" fill="#191919"/>
<path d="M42.5541 36.4515L37.5898 31.4873L42.9988 26.1168L48.3708 31.4873L42.9895 36.8962L42.5541 36.4515ZM39.381 31.4873L42.9895 35.0958L46.5519 31.4873L42.9895 27.9157L39.381 31.4873Z" fill="#191919"/>
<path d="M29.7323 22.7576L34.658 17.7949L40.067 23.2039L34.658 28.5743L29.286 23.1931L29.7323 22.7576ZM34.658 19.5846L31.0495 23.1931L34.658 26.8031L38.2665 23.1931L34.658 19.5846Z" fill="#191919"/>
<path d="M43.4247 18.8705L47.7488 23.193L42.9892 27.9618L38.2205 23.193L42.9892 18.4258L43.4247 18.8705ZM45.9576 23.193L42.9892 20.2247L40.0209 23.193L42.9892 26.1629L45.9576 23.193Z" fill="#191919"/>
</svg>
