<svg width="93" height="80" viewBox="0 0 93 80" fill="none" xmlns="http://www.w3.org/2000/svg">
<path d="M46.1216 1.19374C34.8336 1.19374 25.6499 10.3774 25.6499 21.6654C25.6499 32.9534 34.8336 42.1351 46.1216 42.1351C57.4096 42.1351 66.5913 32.9534 66.5913 21.6654C66.5913 10.3774 57.4096 1.19374 46.1216 1.19374ZM46.1216 43.3308C34.1763 43.3308 24.4562 33.6107 24.4562 21.6654C24.4562 9.72014 34.1763 0 46.1216 0C58.0669 0 67.787 9.72014 67.787 21.6654C67.787 33.6107 58.0669 43.3308 46.1216 43.3308Z" fill="#191919"/>
<path d="M46.1216 3.82865C36.2867 3.82865 28.2849 11.8304 28.2849 21.6654C28.2849 31.5004 36.2867 39.5021 46.1216 39.5021C55.9566 39.5021 63.9584 31.5004 63.9584 21.6654C63.9584 11.8304 55.9566 3.82865 46.1216 3.82865ZM46.1216 40.6959C35.6274 40.6959 27.0892 32.1596 27.0892 21.6654C27.0892 11.1712 35.6274 2.63293 46.1216 2.63293C56.6158 2.63293 65.1521 11.1712 65.1521 21.6654C65.1521 32.1596 56.6158 40.6959 46.1216 40.6959Z" fill="#191919"/>
<path d="M46.1215 6.46156C37.7376 6.46156 30.9177 13.2815 30.9177 21.6654C30.9177 30.0492 37.7376 36.8692 46.1215 36.8692C54.5053 36.8692 61.3253 30.0492 61.3253 21.6654C61.3253 13.2815 54.5053 6.46156 46.1215 6.46156ZM46.1215 38.0629C37.0804 38.0629 29.7239 30.7065 29.7239 21.6654C29.7239 12.6242 37.0804 5.26782 46.1215 5.26782C55.1626 5.26782 62.519 12.6242 62.519 21.6654C62.519 30.7065 55.1626 38.0629 46.1215 38.0629Z" fill="#191919"/>
<path d="M46.1216 9.09461C39.1908 9.09461 33.5507 14.7347 33.5507 21.6655C33.5507 28.5963 39.1908 34.2363 46.1216 34.2363C53.0524 34.2363 58.6924 28.5963 58.6924 21.6655C58.6924 14.7347 53.0524 9.09461 46.1216 9.09461ZM46.1216 35.43C38.5316 35.43 32.357 29.2555 32.357 21.6655C32.357 14.0754 38.5316 7.90088 46.1216 7.90088C53.7116 7.90088 59.8862 14.0754 59.8862 21.6655C59.8862 29.2555 53.7116 35.43 46.1216 35.43Z" fill="#191919"/>
<path d="M46.1216 11.7295C40.6419 11.7295 36.1857 16.1857 36.1857 21.6654C36.1857 27.1451 40.6419 31.6014 46.1216 31.6014C51.6013 31.6014 56.0575 27.1451 56.0575 21.6654C56.0575 16.1857 51.6013 11.7295 46.1216 11.7295ZM46.1216 32.7971C39.9847 32.7971 34.99 27.8024 34.99 21.6654C34.99 15.5265 39.9847 10.5338 46.1216 10.5338C52.2586 10.5338 57.2533 15.5265 57.2533 21.6654C57.2533 27.8024 52.2586 32.7971 46.1216 32.7971Z" fill="#191919"/>
<path d="M46.1217 14.3625C42.0951 14.3625 38.8187 17.6388 38.8187 21.6654C38.8187 25.6921 42.0951 28.9684 46.1217 28.9684C50.1483 28.9684 53.4247 25.6921 53.4247 21.6654C53.4247 17.6388 50.1483 14.3625 46.1217 14.3625ZM46.1217 30.1621C41.4358 30.1621 37.625 26.3513 37.625 21.6654C37.625 16.9796 41.4358 13.1667 46.1217 13.1667C50.8076 13.1667 54.6184 16.9796 54.6184 21.6654C54.6184 26.3513 50.8076 30.1621 46.1217 30.1621Z" fill="#191919"/>
<path d="M46.1218 16.9954C43.5463 16.9954 41.4518 19.0899 41.4518 21.6654C41.4518 24.239 43.5463 26.3354 46.1218 26.3354C48.6974 26.3354 50.7918 24.239 50.7918 21.6654C50.7918 19.0899 48.6974 16.9954 46.1218 16.9954ZM46.1218 27.5291C42.889 27.5291 40.2581 24.8982 40.2581 21.6654C40.2581 18.4326 42.889 15.8016 46.1218 15.8016C49.3546 15.8016 51.9856 18.4326 51.9856 21.6654C51.9856 24.8982 49.3546 27.5291 46.1218 27.5291Z" fill="#191919"/>
<path d="M46.1219 19.6283C44.9994 19.6283 44.0848 20.5429 44.0848 21.6654C44.0848 22.7878 44.9994 23.7005 46.1219 23.7005C47.2443 23.7005 48.1589 22.7878 48.1589 21.6654C48.1589 20.5429 47.2443 19.6283 46.1219 19.6283ZM46.1219 24.8962C44.3402 24.8962 42.8911 23.4471 42.8911 21.6654C42.8911 19.8837 44.3402 18.4346 46.1219 18.4346C47.9036 18.4346 49.3527 19.8837 49.3527 21.6654C49.3527 23.4471 47.9036 24.8962 46.1219 24.8962Z" fill="#191919"/>
<path d="M5.97066 65.4803C3.8643 65.4803 2.31422 65.0488 1.32241 64.1817C0.439485 63.4175 0 62.3723 0 61.0459C0 59.7215 0.439485 58.6743 1.32241 57.9022C2.31422 57.043 3.8643 56.6115 5.97066 56.6115C7.20597 56.6115 8.22747 56.754 9.03517 57.0391C9.84288 57.3202 10.4684 57.7042 10.9119 58.1952C11.3593 58.6861 11.6582 59.2484 11.8067 59.8819H8.04534C7.66921 59.2226 6.97831 58.892 5.97066 58.892C5.10357 58.892 4.4681 59.1415 4.06226 59.6364C3.73958 60.0323 3.57923 60.5035 3.57923 61.0459C3.57923 61.5903 3.73958 62.0595 4.06226 62.4554C4.4681 62.9523 5.10357 63.1998 5.97066 63.1998C6.97831 63.1998 7.66921 62.8672 8.04534 62.202H11.8067C11.6582 62.8414 11.3593 63.4056 10.9119 63.8966C10.4684 64.3876 9.84288 64.7756 9.03517 65.0606C8.22747 65.3398 7.20597 65.4803 5.97066 65.4803Z" fill="#191919"/>
<path d="M24.8584 65.2983H21.485C21.3267 65.0825 21.2158 64.8073 21.1525 64.4748C21.099 64.2214 21.0178 63.9719 20.907 63.7225C20.7961 63.475 20.6021 63.2691 20.3289 63.1048C20.0597 62.9425 19.6578 62.8514 19.1253 62.8356H16.8051V65.2983H13.2259V56.7778H19.0382C20.4319 56.7778 21.5523 56.8808 22.4036 57.0867C23.2588 57.2925 23.8804 57.6212 24.2724 58.0686C24.6624 58.512 24.8584 59.094 24.8584 59.8107C24.8584 60.4085 24.7238 60.9114 24.4545 61.3231C24.1853 61.7309 23.7577 62.0516 23.1717 62.2892C23.7359 62.5228 24.1021 62.8019 24.2724 63.1286C24.4407 63.4572 24.5436 63.8155 24.5812 64.2055C24.6228 64.5539 24.7158 64.9182 24.8584 65.2983ZM16.8051 60.7372L18.8481 60.7292C19.4183 60.7292 19.8657 60.7055 20.1943 60.658C20.5209 60.6065 20.7605 60.5352 20.9149 60.4442C21.0733 60.3551 21.1723 60.2581 21.2158 60.1512C21.2633 60.0403 21.2871 59.9275 21.2871 59.8107C21.2871 59.6959 21.2633 59.581 21.2158 59.4702C21.1723 59.3593 21.0733 59.2603 20.9149 59.1693C20.7605 59.0802 20.5209 59.0109 20.1943 58.9634C19.8657 58.9119 19.4183 58.8842 18.8481 58.8842H16.8051V60.7372Z" fill="#191919"/>
<path d="M36.5419 65.2983H26.2793V56.7778H36.0747V58.8842H29.8585V60.2224H35.1086V61.8616H29.8585V63.1919H36.5419V65.2983Z" fill="#191919"/>
<path d="M51.3281 65.2983H47.7014L46.9016 63.9046H41.5248L40.7251 65.2983H37.0983L42.5543 56.7778H45.8722L51.3281 65.2983ZM45.698 61.7903L44.2172 59.2089L42.7285 61.7903H45.698Z" fill="#191919"/>
<path d="M58.6755 65.2983H55.1042V58.8842H51.7626V56.7778H62.0172V58.8842H58.6755V65.2983Z" fill="#191919"/>
<path d="M66.8937 65.2983H63.3145V56.7778H66.8937V65.2983Z" fill="#191919"/>
<path d="M76.0253 65.2983H72.6994L67.9245 56.7778H71.5512L74.3624 62.8673L77.1735 56.7778H80.8002L76.0253 65.2983Z" fill="#191919"/>
<path d="M92.0915 65.2983H81.829V56.7778H91.6243V58.8842H85.4082V60.2224H90.6583V61.8616H85.4082V63.1919H92.0915V65.2983Z" fill="#191919"/>
<path d="M18.5713 80C17.4191 80 16.4907 79.8753 15.7839 79.6278C15.0812 79.3803 14.5447 79.0398 14.1764 78.6063C13.8063 78.1747 13.5588 77.6758 13.4321 77.1097H17.233C17.5122 77.5115 17.9576 77.7115 18.5713 77.7115C19.183 77.7115 19.6324 77.5115 19.9175 77.1097C19.9373 77.0681 19.9491 77.0305 19.9491 76.9988C19.9491 76.8939 19.8066 76.8147 19.5215 76.7612C19.2404 76.7098 18.8188 76.6702 18.2546 76.6425C17.5458 76.6108 16.8015 76.5356 16.0215 76.4128C14.2834 76.1436 13.4163 75.4448 13.4163 74.3144C13.4163 74.2194 13.4202 74.1204 13.4321 74.0135C13.5588 73.4493 13.8063 72.9504 14.1764 72.5169C14.5447 72.0853 15.0812 71.7448 15.7839 71.4953C16.4907 71.2479 17.4191 71.1232 18.5713 71.1232C19.7215 71.1232 20.648 71.2479 21.3507 71.4953C22.0575 71.7448 22.5959 72.0853 22.9661 72.5169C23.3344 72.9504 23.5838 73.4493 23.7105 74.0135H19.9175C19.6324 73.6136 19.183 73.4117 18.5713 73.4117C17.9576 73.4117 17.5122 73.6136 17.233 74.0135C17.2113 74.0451 17.2014 74.0748 17.2014 74.1006C17.2014 74.1956 17.336 74.2669 17.6052 74.3144C17.8784 74.3619 18.2803 74.4015 18.8089 74.4332C19.3354 74.4648 19.8977 74.5183 20.4955 74.5915C21.0914 74.6608 21.6517 74.7816 22.1743 74.9558C22.6969 75.13 23.1027 75.3913 23.3938 75.7397C23.6254 76.005 23.7422 76.3396 23.7422 76.7454C23.7422 76.8622 23.7303 76.983 23.7105 77.1097C23.5838 77.6758 23.3344 78.1747 22.9661 78.6063C22.5959 79.0398 22.0575 79.3803 21.3507 79.6278C20.648 79.8753 19.7215 80 18.5713 80Z" fill="#191919"/>
<path d="M31.4768 79.8178H27.9054V73.4037H24.5638V71.2974H34.8184V73.4037H31.4768V79.8178Z" fill="#191919"/>
<path d="M41.1602 80C39.0795 80 37.6166 79.5704 36.7732 78.7092C36.0606 77.9807 35.7042 76.9335 35.7042 75.5655V71.2974H39.2755V75.5655C39.2755 76.1574 39.3745 76.6266 39.5764 76.975C39.8655 77.466 40.394 77.7115 41.1602 77.7115C41.9303 77.7115 42.4588 77.466 42.7439 76.975C42.9438 76.6167 43.0448 76.1475 43.0448 75.5655V71.2974H46.624V75.613C46.624 76.9493 46.2697 77.9807 45.5629 78.7092C44.7077 79.5704 43.2388 80 41.1602 80Z" fill="#191919"/>
<path d="M53.8023 79.8178H48.1009V71.2974H53.8023C56.1344 71.2974 57.8111 71.622 58.8307 72.2714C59.6542 72.7999 60.1234 73.5185 60.2402 74.4252C60.2916 74.8172 60.3194 75.1933 60.3194 75.5576C60.3194 75.9179 60.2916 76.294 60.2402 76.69C60.1927 77.0859 60.06 77.4699 59.8442 77.8382C59.6324 78.2084 59.2939 78.5409 58.8307 78.8359C58.3654 79.1329 57.726 79.3704 56.9143 79.5486C56.1066 79.7287 55.0693 79.8178 53.8023 79.8178ZM53.4618 77.7115C55.2831 77.7115 56.3125 77.2522 56.5501 76.3336C56.6134 76.0763 56.6451 75.8169 56.6451 75.5576C56.6451 75.3002 56.6095 75.0429 56.5422 74.7895C56.4788 74.5321 56.3402 74.2985 56.1304 74.0926C55.9186 73.8828 55.5998 73.7165 55.1722 73.5938C54.7486 73.4671 54.1785 73.4037 53.4618 73.4037H51.6801V77.7115H53.4618Z" fill="#191919"/>
<path d="M65.3153 79.8178H61.7361V71.2974H65.3153V79.8178Z" fill="#191919"/>
<path d="M72.7046 80C70.5982 80 69.0482 79.5684 68.0564 78.7013C67.1734 77.9312 66.7339 76.884 66.7339 75.5576C66.7339 74.2392 67.1734 73.1939 68.0564 72.4218C69.0482 71.5567 70.5982 71.1232 72.7046 71.1232C74.811 71.1232 76.3591 71.5567 77.3528 72.4218C78.2338 73.1939 78.6753 74.2392 78.6753 75.5576C78.6753 76.884 78.2338 77.9312 77.3528 78.7013C76.3591 79.5684 74.811 80 72.7046 80ZM72.7046 77.7115C73.5638 77.7115 74.1973 77.466 74.6051 76.975C74.9258 76.5752 75.0881 76.102 75.0881 75.5576C75.0881 75.0152 74.9258 74.544 74.6051 74.1481C74.1973 73.6532 73.5638 73.4037 72.7046 73.4037C71.8375 73.4037 71.202 73.6532 70.7962 74.1481C70.4735 74.544 70.3132 75.0152 70.3132 75.5576C70.3132 76.102 70.4735 76.5752 70.7962 76.975C71.202 77.466 71.8375 77.7115 72.7046 77.7115Z" fill="#191919"/>
</svg>
